<svg width="500" height="500" viewBox="0 0 500 500" fill="none" xmlns="http://www.w3.org/2000/svg">
<rect width="500" height="500" fill="white"/>
<line x1="116.5" y1="97.5" x2="116.5" y2="293.5" stroke="#300F23" stroke-width="5" stroke-linecap="round"/>
<line x1="385.5" y1="97.5" x2="385.5" y2="293.5" stroke="#300F23" stroke-width="5" stroke-linecap="round"/>
<path d="M250 125L312.354 160.75V232.25L250 268L187.646 232.25V160.75L250 125Z" fill="#300F23"/>
<path d="M194.945 341L203.793 319.916H203.961L212.809 341H209.673L207.573 335.68H199.789L197.633 341H194.945ZM200.741 333.328H206.649L203.765 325.964L200.741 333.328ZM215.95 319.3H218.554V341H215.95V319.3ZM223.086 319.3H225.69V341H223.086V319.3ZM239.726 320.756H242.442V341H239.726V320.756ZM248.258 320.756H250.974V341H248.258V320.756ZM267.261 324.368C266.57 324.013 265.814 323.705 264.993 323.444C264.172 323.183 263.378 323.052 262.613 323.052C261.512 323.052 260.634 323.304 259.981 323.808C259.346 324.312 259.029 324.993 259.029 325.852C259.029 326.468 259.234 326.991 259.645 327.42C260.074 327.849 260.616 328.232 261.269 328.568C261.941 328.885 262.65 329.184 263.397 329.464C264.237 329.781 265.049 330.164 265.833 330.612C266.617 331.06 267.261 331.667 267.765 332.432C268.288 333.179 268.549 334.187 268.549 335.456C268.549 336.539 268.278 337.519 267.737 338.396C267.196 339.255 266.43 339.945 265.441 340.468C264.452 340.972 263.276 341.224 261.913 341.224C260.569 341.224 259.318 341.009 258.161 340.58C257.022 340.151 256.052 339.656 255.249 339.096L256.453 336.94C257.106 337.444 257.909 337.883 258.861 338.256C259.832 338.629 260.756 338.816 261.633 338.816C262.286 338.816 262.921 338.704 263.537 338.48C264.172 338.256 264.694 337.901 265.105 337.416C265.516 336.912 265.721 336.268 265.721 335.484C265.721 334.812 265.534 334.243 265.161 333.776C264.788 333.309 264.302 332.917 263.705 332.6C263.126 332.264 262.492 331.965 261.801 331.704C261.166 331.48 260.522 331.219 259.869 330.92C259.216 330.621 258.609 330.267 258.049 329.856C257.508 329.427 257.069 328.904 256.733 328.288C256.397 327.672 256.229 326.925 256.229 326.048C256.229 324.984 256.481 324.06 256.985 323.276C257.508 322.473 258.217 321.848 259.113 321.4C260.009 320.933 261.045 320.681 262.221 320.644C263.509 320.644 264.648 320.803 265.637 321.12C266.645 321.437 267.532 321.82 268.297 322.268L267.261 324.368ZM273.086 320.756H286.246V323.36H275.802V329.52H285.126V332.124H275.802V338.368H286.638V341H273.086V320.756ZM296.783 320.756C298.127 320.756 299.34 320.999 300.423 321.484C301.505 321.951 302.364 322.66 302.999 323.612C303.633 324.545 303.951 325.684 303.951 327.028C303.951 328.185 303.689 329.305 303.167 330.388C302.663 331.471 301.804 332.292 300.591 332.852L305.687 341H302.523L297.735 333.524C297.529 333.543 297.315 333.552 297.091 333.552H294.095V341H291.379V320.756H296.783ZM297.035 330.92C298.117 330.92 298.948 330.724 299.527 330.332C300.124 329.921 300.544 329.427 300.787 328.848C301.029 328.251 301.151 327.681 301.151 327.14C301.151 326.599 301.02 326.039 300.759 325.46C300.497 324.881 300.077 324.387 299.499 323.976C298.939 323.565 298.183 323.36 297.231 323.36H294.095V330.92H297.035ZM173.52 371.488C173.184 371.712 172.727 371.964 172.148 372.244C171.57 372.524 170.888 372.767 170.104 372.972C169.339 373.159 168.499 373.243 167.584 373.224C165.998 373.205 164.579 372.925 163.328 372.384C162.078 371.843 161.004 371.105 160.108 370.172C159.231 369.22 158.559 368.137 158.092 366.924C157.626 365.711 157.392 364.413 157.392 363.032C157.392 361.52 157.635 360.129 158.12 358.86C158.624 357.572 159.324 356.461 160.22 355.528C161.116 354.576 162.171 353.839 163.384 353.316C164.616 352.793 165.96 352.532 167.416 352.532C168.63 352.532 169.731 352.7 170.72 353.036C171.71 353.353 172.559 353.727 173.268 354.156L172.176 356.704C171.616 356.331 170.935 355.976 170.132 355.64C169.33 355.304 168.452 355.136 167.5 355.136C166.511 355.136 165.578 355.341 164.7 355.752C163.823 356.144 163.048 356.695 162.376 357.404C161.704 358.095 161.172 358.916 160.78 359.868C160.407 360.801 160.22 361.809 160.22 362.892C160.22 364.348 160.519 365.664 161.116 366.84C161.732 367.997 162.591 368.912 163.692 369.584C164.812 370.256 166.119 370.592 167.612 370.592C168.658 370.592 169.572 370.443 170.356 370.144C171.159 369.827 171.822 369.463 172.344 369.052L173.52 371.488ZM181.146 373.448C180.082 373.448 179.204 373.131 178.514 372.496C177.823 371.843 177.468 371.003 177.45 369.976V361.408H180.054V369.052C180.091 369.687 180.278 370.2 180.614 370.592C180.95 370.984 181.472 371.189 182.182 371.208C182.816 371.208 183.395 371.021 183.918 370.648C184.44 370.256 184.851 369.733 185.15 369.08C185.467 368.408 185.626 367.652 185.626 366.812V361.408H188.23V373H185.878L185.682 370.816C185.308 371.581 184.711 372.216 183.89 372.72C183.087 373.205 182.172 373.448 181.146 373.448ZM199.846 373.28C198.857 373.28 197.979 373.093 197.214 372.72C196.467 372.328 195.851 371.833 195.366 371.236V373H192.762V351.3H195.366V362.976C195.833 362.36 196.486 361.865 197.326 361.492C198.166 361.119 199.118 360.932 200.182 360.932C201.209 360.932 202.151 361.184 203.01 361.688C203.869 362.173 204.559 362.873 205.082 363.788C205.605 364.703 205.866 365.776 205.866 367.008C205.866 368.333 205.586 369.463 205.026 370.396C204.466 371.329 203.729 372.048 202.814 372.552C201.899 373.037 200.91 373.28 199.846 373.28ZM199.286 371.04C200.425 371.04 201.358 370.667 202.086 369.92C202.833 369.155 203.206 368.184 203.206 367.008C203.206 366.261 203.029 365.589 202.674 364.992C202.338 364.376 201.871 363.891 201.274 363.536C200.695 363.181 200.033 363.004 199.286 363.004C198.315 363.004 197.475 363.265 196.766 363.788C196.057 364.311 195.59 364.983 195.366 365.804V368.184C195.59 369.005 196.047 369.687 196.738 370.228C197.429 370.769 198.278 371.04 199.286 371.04ZM209.36 361.408H211.964V373H209.36V361.408ZM209.164 357.236C209.164 356.807 209.322 356.461 209.64 356.2C209.976 355.92 210.34 355.78 210.732 355.78C211.124 355.78 211.478 355.92 211.796 356.2C212.113 356.461 212.272 356.807 212.272 357.236C212.272 357.665 212.113 358.02 211.796 358.3C211.478 358.561 211.124 358.692 210.732 358.692C210.34 358.692 209.976 358.561 209.64 358.3C209.322 358.02 209.164 357.665 209.164 357.236ZM218.849 361.408L219.017 363.648C219.409 362.827 220.015 362.173 220.837 361.688C221.658 361.203 222.61 360.96 223.693 360.96C224.775 360.96 225.662 361.287 226.353 361.94C227.062 362.575 227.435 363.405 227.473 364.432V373H224.841V365.328C224.803 364.712 224.607 364.208 224.253 363.816C223.917 363.424 223.385 363.219 222.657 363.2C221.649 363.2 220.799 363.611 220.109 364.432C219.437 365.235 219.101 366.28 219.101 367.568V373H216.497V361.408H218.849ZM237.573 378.74C236.285 378.74 235.212 378.516 234.353 378.068C233.494 377.639 232.701 377.088 231.973 376.416L233.513 374.624C234.11 375.221 234.726 375.669 235.361 375.968C235.996 376.285 236.714 376.444 237.517 376.444C238.824 376.444 239.822 376.127 240.513 375.492C241.204 374.876 241.558 374.055 241.577 373.028V370.9C241.185 371.591 240.578 372.16 239.757 372.608C238.936 373.056 237.965 373.28 236.845 373.28C235.762 373.28 234.773 373.009 233.877 372.468C233 371.927 232.29 371.199 231.749 370.284C231.226 369.351 230.965 368.305 230.965 367.148C230.965 365.935 231.245 364.861 231.805 363.928C232.365 362.995 233.102 362.267 234.017 361.744C234.932 361.203 235.93 360.932 237.013 360.932C238.021 360.932 238.936 361.128 239.757 361.52C240.578 361.912 241.194 362.416 241.605 363.032L241.829 361.408H244.209V373.084C244.209 374.129 243.938 375.081 243.397 375.94C242.856 376.799 242.09 377.48 241.101 377.984C240.112 378.488 238.936 378.74 237.573 378.74ZM233.597 367.064C233.597 367.829 233.774 368.52 234.129 369.136C234.484 369.733 234.96 370.219 235.557 370.592C236.173 370.947 236.854 371.124 237.601 371.124C238.609 371.124 239.468 370.853 240.177 370.312C240.905 369.752 241.372 369.043 241.577 368.184V365.888C241.334 365.067 240.849 364.395 240.121 363.872C239.393 363.349 238.553 363.088 237.601 363.088C236.836 363.088 236.145 363.256 235.529 363.592C234.932 363.928 234.456 364.395 234.101 364.992C233.765 365.589 233.597 366.28 233.597 367.064ZM268.71 356.368C268.02 356.013 267.264 355.705 266.442 355.444C265.621 355.183 264.828 355.052 264.062 355.052C262.961 355.052 262.084 355.304 261.43 355.808C260.796 356.312 260.478 356.993 260.478 357.852C260.478 358.468 260.684 358.991 261.094 359.42C261.524 359.849 262.065 360.232 262.718 360.568C263.39 360.885 264.1 361.184 264.846 361.464C265.686 361.781 266.498 362.164 267.282 362.612C268.066 363.06 268.71 363.667 269.214 364.432C269.737 365.179 269.998 366.187 269.998 367.456C269.998 368.539 269.728 369.519 269.186 370.396C268.645 371.255 267.88 371.945 266.89 372.468C265.901 372.972 264.725 373.224 263.362 373.224C262.018 373.224 260.768 373.009 259.61 372.58C258.472 372.151 257.501 371.656 256.698 371.096L257.902 368.94C258.556 369.444 259.358 369.883 260.31 370.256C261.281 370.629 262.205 370.816 263.082 370.816C263.736 370.816 264.37 370.704 264.986 370.48C265.621 370.256 266.144 369.901 266.554 369.416C266.965 368.912 267.17 368.268 267.17 367.484C267.17 366.812 266.984 366.243 266.61 365.776C266.237 365.309 265.752 364.917 265.154 364.6C264.576 364.264 263.941 363.965 263.25 363.704C262.616 363.48 261.972 363.219 261.318 362.92C260.665 362.621 260.058 362.267 259.498 361.856C258.957 361.427 258.518 360.904 258.182 360.288C257.846 359.672 257.678 358.925 257.678 358.048C257.678 356.984 257.93 356.06 258.434 355.276C258.957 354.473 259.666 353.848 260.562 353.4C261.458 352.933 262.494 352.681 263.67 352.644C264.958 352.644 266.097 352.803 267.086 353.12C268.094 353.437 268.981 353.82 269.746 354.268L268.71 356.368ZM272.883 367.092C272.883 365.935 273.154 364.889 273.695 363.956C274.255 363.023 275.02 362.285 275.991 361.744C276.962 361.203 278.072 360.932 279.323 360.932C280.574 360.932 281.675 361.203 282.627 361.744C283.579 362.285 284.316 363.023 284.839 363.956C285.38 364.889 285.651 365.935 285.651 367.092C285.651 368.249 285.38 369.295 284.839 370.228C284.316 371.161 283.57 371.908 282.599 372.468C281.647 373.009 280.536 373.28 279.267 373.28C278.035 373.28 276.934 373.028 275.963 372.524C275.011 372.02 274.255 371.301 273.695 370.368C273.154 369.435 272.883 368.343 272.883 367.092ZM275.515 367.12C275.515 367.867 275.674 368.548 275.991 369.164C276.327 369.761 276.775 370.237 277.335 370.592C277.895 370.947 278.53 371.124 279.239 371.124C279.967 371.124 280.611 370.947 281.171 370.592C281.731 370.237 282.17 369.761 282.487 369.164C282.823 368.548 282.991 367.867 282.991 367.12C282.991 366.373 282.823 365.701 282.487 365.104C282.17 364.488 281.731 364.003 281.171 363.648C280.611 363.275 279.967 363.088 279.239 363.088C278.53 363.088 277.886 363.275 277.307 363.648C276.747 364.021 276.308 364.516 275.991 365.132C275.674 365.729 275.515 366.392 275.515 367.12ZM298.557 371.908C298.034 372.337 297.409 372.673 296.681 372.916C295.953 373.159 295.225 373.28 294.497 373.28C293.246 373.28 292.136 373.028 291.165 372.524C290.213 372.02 289.466 371.311 288.925 370.396C288.402 369.481 288.141 368.408 288.141 367.176C288.141 365.944 288.421 364.88 288.981 363.984C289.56 363.069 290.306 362.36 291.221 361.856C292.154 361.352 293.162 361.1 294.245 361.1C295.178 361.1 296.009 361.231 296.737 361.492C297.465 361.753 298.1 362.108 298.641 362.556L297.325 364.264C296.989 364.021 296.578 363.797 296.093 363.592C295.608 363.368 295.066 363.256 294.469 363.256C293.778 363.256 293.153 363.433 292.593 363.788C292.033 364.124 291.585 364.591 291.249 365.188C290.913 365.767 290.745 366.429 290.745 367.176C290.745 367.904 290.913 368.567 291.249 369.164C291.585 369.761 292.052 370.237 292.649 370.592C293.246 370.947 293.937 371.124 294.721 371.124C295.206 371.124 295.654 371.049 296.065 370.9C296.494 370.751 296.877 370.545 297.213 370.284L298.557 371.908ZM301.918 361.408H304.522V373H301.918V361.408ZM301.722 357.236C301.722 356.807 301.881 356.461 302.198 356.2C302.534 355.92 302.898 355.78 303.29 355.78C303.682 355.78 304.037 355.92 304.354 356.2C304.672 356.461 304.83 356.807 304.83 357.236C304.83 357.665 304.672 358.02 304.354 358.3C304.037 358.561 303.682 358.692 303.29 358.692C302.898 358.692 302.534 358.561 302.198 358.3C301.881 358.02 301.722 357.665 301.722 357.236ZM314.431 373.28C313.124 373.28 311.986 373.019 311.015 372.496C310.063 371.955 309.326 371.217 308.803 370.284C308.299 369.351 308.047 368.296 308.047 367.12C308.047 365.981 308.327 364.945 308.887 364.012C309.466 363.06 310.24 362.313 311.211 361.772C312.2 361.212 313.292 360.932 314.487 360.932C316.018 360.932 317.287 361.38 318.295 362.276C319.303 363.172 319.994 364.404 320.367 365.972L311.183 369.192C311.5 369.771 311.948 370.228 312.527 370.564C313.106 370.881 313.759 371.04 314.487 371.04C315.01 371.04 315.504 370.947 315.971 370.76C316.438 370.573 316.886 370.331 317.315 370.032L318.519 371.964C317.922 372.356 317.259 372.673 316.531 372.916C315.822 373.159 315.122 373.28 314.431 373.28ZM310.623 366.98C310.604 367.204 310.614 367.419 310.651 367.624L317.399 365.132C317.138 364.572 316.755 364.077 316.251 363.648C315.766 363.219 315.112 363.004 314.291 363.004C313.227 363.004 312.35 363.377 311.659 364.124C310.968 364.871 310.623 365.823 310.623 366.98ZM324.722 356.312H327.354V361.436H330.518V363.508H327.354V373H324.722V363.508H322.594V361.436H324.722V356.312ZM334.672 378.572L337.332 372.636L331.956 361.408H334.896L338.62 369.668L342.316 361.408H344.724L337.248 378.572H334.672Z" fill="#300F23"/>
</svg>
